# xmcd
#
# Track frame offsets:
#	150
#	17087
#	37272
#	52882
#	69597
#	89122
#	107837
#	125960
#	140575
#	158535
#	175537
#	191747
#	211125
#
# Disc length: 3072 seconds
#
# Revision: 6
# Processed by: cddbd v1.5.2PL0 Copyright (c) Steve Scherf et al.
# Submitted via: EZCDAudioConverter 6.0.4.1
#
DISCID=bc0bfe0d
DTITLE=Radney Foster - Another Way To Go
DYEAR=2002
DGENRE=Country
TTITLE0=Real Fine Place To Start
TTITLE1=Everyday Angel
TTITLE2=Again
TTITLE3=Sure Feels Right
TTITLE4=Disappointing You
TTITLE5=I Got What You Need
TTITLE6=Tired Of Pretending
TTITLE7=What It Is That You Do
TTITLE8=Scary Old World [with Chely Wright]
TTITLE9=Love Had Something To Say About It
TTITLE10=What Are We Doing Here Tonight
TTITLE11=Just Sit Still
TTITLE12=Another Way To Go
EXTD=
EXTT0=
EXTT1=
EXTT2=
EXTT3=
EXTT4=
EXTT5=
EXTT6=
EXTT7=
EXTT8=
EXTT9=
EXTT10=
EXTT11=
EXTT12=
PLAYORDER=
